<mxfile host="app.diagrams.net" modified="2023-09-22T13:55:00.893Z" agent="Mozilla/5.0 (Macintosh; Intel Mac OS X 10_15_7) AppleWebKit/537.36 (KHTML, like Gecko) Chrome/115.0.0.0 Safari/537.36" etag="oCDU_Si2QrSUDALTJVk3" version="21.1.7" type="device">
  <diagram name="Page-1" id="OW8y91haSbETil4SKcpS">
    <mxGraphModel dx="1026" dy="686" grid="1" gridSize="10" guides="1" tooltips="1" connect="1" arrows="1" fold="1" page="1" pageScale="1" pageWidth="827" pageHeight="1169" math="0" shadow="0">
      <root>
        <mxCell id="0" />
        <mxCell id="1" parent="0" />
        <mxCell id="sor08i8SqQmM2v9-lG7f-1" value="Dropbox:&lt;br&gt;1. Cloud storage, where files available in network, through internet&lt;br&gt;2. Users pay for subscription" style="text;html=1;align=center;verticalAlign=middle;resizable=0;points=[];autosize=1;strokeColor=none;fillColor=none;" vertex="1" parent="1">
          <mxGeometry x="40" y="90" width="380" height="60" as="geometry" />
        </mxCell>
        <mxCell id="sor08i8SqQmM2v9-lG7f-2" value="Features:&lt;br&gt;Availability, Reliability, Durability" style="text;html=1;align=center;verticalAlign=middle;resizable=0;points=[];autosize=1;strokeColor=none;fillColor=none;" vertex="1" parent="1">
          <mxGeometry x="35" y="200" width="190" height="40" as="geometry" />
        </mxCell>
        <mxCell id="sor08i8SqQmM2v9-lG7f-3" value="Requirements:&lt;br&gt;&lt;span style=&quot;white-space: pre;&quot;&gt;	&lt;/span&gt;1. Users should upload/download photos&lt;br&gt;2.share files.folders to other users&lt;br&gt;3. Do automatic synchronization&lt;br&gt;4.Support for large files in GB&lt;br&gt;5.ACID" style="text;html=1;align=center;verticalAlign=middle;resizable=0;points=[];autosize=1;strokeColor=none;fillColor=none;" vertex="1" parent="1">
          <mxGeometry x="325" y="160" width="270" height="100" as="geometry" />
        </mxCell>
        <mxCell id="sor08i8SqQmM2v9-lG7f-4" value="&lt;b&gt;&lt;font style=&quot;font-size: 18px;&quot;&gt;High Level Design&lt;/font&gt;&lt;/b&gt;" style="text;html=1;align=center;verticalAlign=middle;resizable=0;points=[];autosize=1;strokeColor=none;fillColor=none;" vertex="1" parent="1">
          <mxGeometry x="280" y="345" width="180" height="40" as="geometry" />
        </mxCell>
        <mxCell id="sor08i8SqQmM2v9-lG7f-10" style="edgeStyle=orthogonalEdgeStyle;rounded=0;orthogonalLoop=1;jettySize=auto;html=1;entryX=0;entryY=0.75;entryDx=0;entryDy=0;" edge="1" parent="1" source="sor08i8SqQmM2v9-lG7f-5" target="sor08i8SqQmM2v9-lG7f-6">
          <mxGeometry relative="1" as="geometry" />
        </mxCell>
        <mxCell id="sor08i8SqQmM2v9-lG7f-11" style="edgeStyle=orthogonalEdgeStyle;rounded=0;orthogonalLoop=1;jettySize=auto;html=1;entryX=0;entryY=0.5;entryDx=0;entryDy=0;" edge="1" parent="1" source="sor08i8SqQmM2v9-lG7f-5" target="sor08i8SqQmM2v9-lG7f-7">
          <mxGeometry relative="1" as="geometry">
            <Array as="points">
              <mxPoint x="260" y="560" />
              <mxPoint x="260" y="560" />
            </Array>
          </mxGeometry>
        </mxCell>
        <mxCell id="sor08i8SqQmM2v9-lG7f-12" style="edgeStyle=orthogonalEdgeStyle;rounded=0;orthogonalLoop=1;jettySize=auto;html=1;" edge="1" parent="1" source="sor08i8SqQmM2v9-lG7f-5">
          <mxGeometry relative="1" as="geometry">
            <mxPoint x="350" y="690" as="targetPoint" />
            <Array as="points">
              <mxPoint x="180" y="610" />
              <mxPoint x="300" y="610" />
              <mxPoint x="300" y="690" />
            </Array>
          </mxGeometry>
        </mxCell>
        <mxCell id="sor08i8SqQmM2v9-lG7f-5" value="Clients" style="ellipse;shape=cloud;whiteSpace=wrap;html=1;" vertex="1" parent="1">
          <mxGeometry x="120" y="510" width="120" height="80" as="geometry" />
        </mxCell>
        <mxCell id="sor08i8SqQmM2v9-lG7f-15" style="edgeStyle=orthogonalEdgeStyle;rounded=0;orthogonalLoop=1;jettySize=auto;html=1;" edge="1" parent="1" source="sor08i8SqQmM2v9-lG7f-6" target="sor08i8SqQmM2v9-lG7f-9">
          <mxGeometry relative="1" as="geometry" />
        </mxCell>
        <mxCell id="sor08i8SqQmM2v9-lG7f-16" style="edgeStyle=orthogonalEdgeStyle;rounded=0;orthogonalLoop=1;jettySize=auto;html=1;entryX=0.017;entryY=0.658;entryDx=0;entryDy=0;entryPerimeter=0;" edge="1" parent="1" source="sor08i8SqQmM2v9-lG7f-6" target="sor08i8SqQmM2v9-lG7f-14">
          <mxGeometry relative="1" as="geometry">
            <Array as="points">
              <mxPoint x="410" y="500" />
              <mxPoint x="565" y="500" />
              <mxPoint x="565" y="610" />
            </Array>
          </mxGeometry>
        </mxCell>
        <mxCell id="sor08i8SqQmM2v9-lG7f-6" value="Block Server" style="rounded=1;whiteSpace=wrap;html=1;" vertex="1" parent="1">
          <mxGeometry x="350" y="430" width="120" height="60" as="geometry" />
        </mxCell>
        <mxCell id="sor08i8SqQmM2v9-lG7f-17" style="edgeStyle=orthogonalEdgeStyle;rounded=0;orthogonalLoop=1;jettySize=auto;html=1;entryX=0;entryY=0.15;entryDx=0;entryDy=0;entryPerimeter=0;" edge="1" parent="1" source="sor08i8SqQmM2v9-lG7f-7" target="sor08i8SqQmM2v9-lG7f-14">
          <mxGeometry relative="1" as="geometry" />
        </mxCell>
        <mxCell id="sor08i8SqQmM2v9-lG7f-7" value="Metadata Server" style="rounded=1;whiteSpace=wrap;html=1;" vertex="1" parent="1">
          <mxGeometry x="350" y="530" width="120" height="60" as="geometry" />
        </mxCell>
        <mxCell id="sor08i8SqQmM2v9-lG7f-22" style="edgeStyle=orthogonalEdgeStyle;rounded=0;orthogonalLoop=1;jettySize=auto;html=1;entryX=0.5;entryY=1;entryDx=0;entryDy=0;" edge="1" parent="1" source="sor08i8SqQmM2v9-lG7f-8" target="sor08i8SqQmM2v9-lG7f-7">
          <mxGeometry relative="1" as="geometry" />
        </mxCell>
        <mxCell id="sor08i8SqQmM2v9-lG7f-8" value="Synchronization server" style="rounded=1;whiteSpace=wrap;html=1;" vertex="1" parent="1">
          <mxGeometry x="354" y="650" width="120" height="60" as="geometry" />
        </mxCell>
        <mxCell id="sor08i8SqQmM2v9-lG7f-9" value="Cloud storage" style="ellipse;shape=cloud;whiteSpace=wrap;html=1;" vertex="1" parent="1">
          <mxGeometry x="620" y="420" width="120" height="80" as="geometry" />
        </mxCell>
        <mxCell id="sor08i8SqQmM2v9-lG7f-14" value="" style="strokeWidth=2;html=1;shape=mxgraph.flowchart.database;whiteSpace=wrap;" vertex="1" parent="1">
          <mxGeometry x="660" y="570" width="60" height="60" as="geometry" />
        </mxCell>
        <mxCell id="sor08i8SqQmM2v9-lG7f-18" value="Stores filename,size,directory, in meta deta&amp;nbsp;" style="text;html=1;align=center;verticalAlign=middle;resizable=0;points=[];autosize=1;strokeColor=none;fillColor=none;" vertex="1" parent="1">
          <mxGeometry x="65" y="810" width="260" height="30" as="geometry" />
        </mxCell>
        <mxCell id="sor08i8SqQmM2v9-lG7f-19" value="Block Server helps in upload/download" style="text;html=1;align=center;verticalAlign=middle;resizable=0;points=[];autosize=1;strokeColor=none;fillColor=none;" vertex="1" parent="1">
          <mxGeometry x="80" y="870" width="230" height="30" as="geometry" />
        </mxCell>
        <mxCell id="sor08i8SqQmM2v9-lG7f-20" value="Metadata storage" style="text;html=1;align=center;verticalAlign=middle;resizable=0;points=[];autosize=1;strokeColor=none;fillColor=none;" vertex="1" parent="1">
          <mxGeometry x="630" y="635" width="120" height="30" as="geometry" />
        </mxCell>
        <mxCell id="sor08i8SqQmM2v9-lG7f-21" value="How to handle synchronization server effectively&lt;br&gt;1. Use chunks 4MB size files&amp;nbsp;" style="text;html=1;align=center;verticalAlign=middle;resizable=0;points=[];autosize=1;strokeColor=none;fillColor=none;" vertex="1" parent="1">
          <mxGeometry x="390" y="805" width="280" height="40" as="geometry" />
        </mxCell>
        <mxCell id="sor08i8SqQmM2v9-lG7f-23" value="HTTP long pooling, push approach" style="text;html=1;align=center;verticalAlign=middle;resizable=0;points=[];autosize=1;strokeColor=none;fillColor=none;" vertex="1" parent="1">
          <mxGeometry x="390" y="870" width="210" height="30" as="geometry" />
        </mxCell>
        <mxCell id="sor08i8SqQmM2v9-lG7f-37" style="edgeStyle=orthogonalEdgeStyle;rounded=0;orthogonalLoop=1;jettySize=auto;html=1;entryX=0;entryY=0.5;entryDx=0;entryDy=0;" edge="1" parent="1" source="sor08i8SqQmM2v9-lG7f-24" target="sor08i8SqQmM2v9-lG7f-31">
          <mxGeometry relative="1" as="geometry" />
        </mxCell>
        <mxCell id="sor08i8SqQmM2v9-lG7f-38" style="edgeStyle=orthogonalEdgeStyle;rounded=0;orthogonalLoop=1;jettySize=auto;html=1;entryX=0;entryY=0.5;entryDx=0;entryDy=0;" edge="1" parent="1" source="sor08i8SqQmM2v9-lG7f-24" target="sor08i8SqQmM2v9-lG7f-32">
          <mxGeometry relative="1" as="geometry">
            <Array as="points">
              <mxPoint x="545" y="1130" />
              <mxPoint x="545" y="1160" />
            </Array>
          </mxGeometry>
        </mxCell>
        <mxCell id="sor08i8SqQmM2v9-lG7f-24" value="" style="rounded=0;whiteSpace=wrap;html=1;" vertex="1" parent="1">
          <mxGeometry x="170" y="1010" width="300" height="190" as="geometry" />
        </mxCell>
        <mxCell id="sor08i8SqQmM2v9-lG7f-25" value="Chunker" style="rounded=1;whiteSpace=wrap;html=1;" vertex="1" parent="1">
          <mxGeometry x="200" y="1030" width="120" height="60" as="geometry" />
        </mxCell>
        <mxCell id="sor08i8SqQmM2v9-lG7f-26" value="Watcher" style="rounded=1;whiteSpace=wrap;html=1;" vertex="1" parent="1">
          <mxGeometry x="200" y="1120" width="120" height="60" as="geometry" />
        </mxCell>
        <mxCell id="sor08i8SqQmM2v9-lG7f-28" value="Indexer" style="rounded=1;whiteSpace=wrap;html=1;" vertex="1" parent="1">
          <mxGeometry x="340" y="1030" width="120" height="60" as="geometry" />
        </mxCell>
        <mxCell id="sor08i8SqQmM2v9-lG7f-29" value="Internal DB" style="rounded=1;whiteSpace=wrap;html=1;" vertex="1" parent="1">
          <mxGeometry x="340" y="1120" width="120" height="60" as="geometry" />
        </mxCell>
        <mxCell id="sor08i8SqQmM2v9-lG7f-30" value="client" style="text;html=1;align=center;verticalAlign=middle;resizable=0;points=[];autosize=1;strokeColor=none;fillColor=none;" vertex="1" parent="1">
          <mxGeometry x="225" y="1205" width="50" height="30" as="geometry" />
        </mxCell>
        <mxCell id="sor08i8SqQmM2v9-lG7f-36" style="edgeStyle=orthogonalEdgeStyle;rounded=0;orthogonalLoop=1;jettySize=auto;html=1;entryX=0.45;entryY=0;entryDx=0;entryDy=0;entryPerimeter=0;" edge="1" parent="1" source="sor08i8SqQmM2v9-lG7f-31" target="sor08i8SqQmM2v9-lG7f-32">
          <mxGeometry relative="1" as="geometry" />
        </mxCell>
        <mxCell id="sor08i8SqQmM2v9-lG7f-31" value="Block storage" style="rounded=1;whiteSpace=wrap;html=1;" vertex="1" parent="1">
          <mxGeometry x="620" y="1000" width="120" height="60" as="geometry" />
        </mxCell>
        <mxCell id="sor08i8SqQmM2v9-lG7f-35" style="edgeStyle=orthogonalEdgeStyle;rounded=0;orthogonalLoop=1;jettySize=auto;html=1;" edge="1" parent="1" source="sor08i8SqQmM2v9-lG7f-32">
          <mxGeometry relative="1" as="geometry">
            <mxPoint x="670" y="1230" as="targetPoint" />
          </mxGeometry>
        </mxCell>
        <mxCell id="sor08i8SqQmM2v9-lG7f-32" value="Synchronization" style="rounded=1;whiteSpace=wrap;html=1;" vertex="1" parent="1">
          <mxGeometry x="620" y="1130" width="120" height="60" as="geometry" />
        </mxCell>
        <mxCell id="sor08i8SqQmM2v9-lG7f-33" value="" style="strokeWidth=2;html=1;shape=mxgraph.flowchart.database;whiteSpace=wrap;" vertex="1" parent="1">
          <mxGeometry x="640" y="1235" width="60" height="60" as="geometry" />
        </mxCell>
        <mxCell id="sor08i8SqQmM2v9-lG7f-34" value="Metadata DB" style="text;html=1;align=center;verticalAlign=middle;resizable=0;points=[];autosize=1;strokeColor=none;fillColor=none;" vertex="1" parent="1">
          <mxGeometry x="635" y="1295" width="90" height="30" as="geometry" />
        </mxCell>
        <mxCell id="sor08i8SqQmM2v9-lG7f-39" value="USE relational type DB for ACID" style="text;html=1;align=center;verticalAlign=middle;resizable=0;points=[];autosize=1;strokeColor=none;fillColor=none;" vertex="1" parent="1">
          <mxGeometry x="145" y="1355" width="190" height="30" as="geometry" />
        </mxCell>
        <mxCell id="sor08i8SqQmM2v9-lG7f-40" value="Synchronization service: Uses some Differentiation Algo" style="text;html=1;align=center;verticalAlign=middle;resizable=0;points=[];autosize=1;strokeColor=none;fillColor=none;" vertex="1" parent="1">
          <mxGeometry x="100" y="1440" width="320" height="30" as="geometry" />
        </mxCell>
        <mxCell id="sor08i8SqQmM2v9-lG7f-41" value="&lt;b&gt;Message Queue&lt;/b&gt;" style="text;html=1;align=center;verticalAlign=middle;resizable=0;points=[];autosize=1;strokeColor=none;fillColor=none;" vertex="1" parent="1">
          <mxGeometry x="80" y="1535" width="110" height="30" as="geometry" />
        </mxCell>
        <mxCell id="sor08i8SqQmM2v9-lG7f-43" value="Actor" style="shape=umlActor;verticalLabelPosition=bottom;verticalAlign=top;html=1;outlineConnect=0;" vertex="1" parent="1">
          <mxGeometry x="210" y="1850" width="30" height="60" as="geometry" />
        </mxCell>
        <mxCell id="sor08i8SqQmM2v9-lG7f-62" style="edgeStyle=orthogonalEdgeStyle;rounded=0;orthogonalLoop=1;jettySize=auto;html=1;entryX=0;entryY=0.5;entryDx=0;entryDy=0;entryPerimeter=0;" edge="1" parent="1" source="sor08i8SqQmM2v9-lG7f-44" target="sor08i8SqQmM2v9-lG7f-58">
          <mxGeometry relative="1" as="geometry" />
        </mxCell>
        <mxCell id="sor08i8SqQmM2v9-lG7f-44" value="Actor" style="shape=umlActor;verticalLabelPosition=bottom;verticalAlign=top;html=1;outlineConnect=0;" vertex="1" parent="1">
          <mxGeometry x="210" y="1740" width="30" height="60" as="geometry" />
        </mxCell>
        <mxCell id="sor08i8SqQmM2v9-lG7f-60" style="edgeStyle=orthogonalEdgeStyle;rounded=0;orthogonalLoop=1;jettySize=auto;html=1;entryX=0;entryY=0;entryDx=0;entryDy=39;entryPerimeter=0;" edge="1" parent="1" source="sor08i8SqQmM2v9-lG7f-45" target="sor08i8SqQmM2v9-lG7f-55">
          <mxGeometry relative="1" as="geometry" />
        </mxCell>
        <mxCell id="sor08i8SqQmM2v9-lG7f-45" value="Actor" style="shape=umlActor;verticalLabelPosition=bottom;verticalAlign=top;html=1;outlineConnect=0;" vertex="1" parent="1">
          <mxGeometry x="210" y="1630" width="30" height="60" as="geometry" />
        </mxCell>
        <mxCell id="sor08i8SqQmM2v9-lG7f-50" value="" style="rounded=0;whiteSpace=wrap;html=1;" vertex="1" parent="1">
          <mxGeometry x="370" y="1614" width="210" height="280" as="geometry" />
        </mxCell>
        <mxCell id="sor08i8SqQmM2v9-lG7f-99" style="edgeStyle=orthogonalEdgeStyle;rounded=0;orthogonalLoop=1;jettySize=auto;html=1;entryX=0.5;entryY=1;entryDx=0;entryDy=0;" edge="1" parent="1" source="sor08i8SqQmM2v9-lG7f-53" target="sor08i8SqQmM2v9-lG7f-98">
          <mxGeometry relative="1" as="geometry" />
        </mxCell>
        <mxCell id="sor08i8SqQmM2v9-lG7f-53" value="" style="strokeWidth=2;html=1;shape=mxgraph.flowchart.database;whiteSpace=wrap;" vertex="1" parent="1">
          <mxGeometry x="690" y="2370" width="60" height="60" as="geometry" />
        </mxCell>
        <mxCell id="sor08i8SqQmM2v9-lG7f-54" value="synchronization Serrvice" style="rounded=1;whiteSpace=wrap;html=1;" vertex="1" parent="1">
          <mxGeometry x="640" y="1630" width="120" height="60" as="geometry" />
        </mxCell>
        <mxCell id="sor08i8SqQmM2v9-lG7f-55" value="" style="shape=singleArrow;whiteSpace=wrap;html=1;" vertex="1" parent="1">
          <mxGeometry x="410" y="1630" width="100" height="60" as="geometry" />
        </mxCell>
        <mxCell id="sor08i8SqQmM2v9-lG7f-61" style="edgeStyle=orthogonalEdgeStyle;rounded=0;orthogonalLoop=1;jettySize=auto;html=1;" edge="1" parent="1" source="sor08i8SqQmM2v9-lG7f-56" target="sor08i8SqQmM2v9-lG7f-43">
          <mxGeometry relative="1" as="geometry">
            <Array as="points">
              <mxPoint x="460" y="1950" />
              <mxPoint x="225" y="1950" />
            </Array>
          </mxGeometry>
        </mxCell>
        <mxCell id="sor08i8SqQmM2v9-lG7f-64" style="edgeStyle=orthogonalEdgeStyle;rounded=0;orthogonalLoop=1;jettySize=auto;html=1;" edge="1" parent="1" source="sor08i8SqQmM2v9-lG7f-56" target="sor08i8SqQmM2v9-lG7f-54">
          <mxGeometry relative="1" as="geometry" />
        </mxCell>
        <mxCell id="sor08i8SqQmM2v9-lG7f-56" value="" style="shape=singleArrow;whiteSpace=wrap;html=1;" vertex="1" parent="1">
          <mxGeometry x="410" y="1694" width="100" height="60" as="geometry" />
        </mxCell>
        <mxCell id="sor08i8SqQmM2v9-lG7f-66" style="edgeStyle=orthogonalEdgeStyle;rounded=0;orthogonalLoop=1;jettySize=auto;html=1;entryX=0.108;entryY=1.042;entryDx=0;entryDy=0;entryPerimeter=0;" edge="1" parent="1" source="sor08i8SqQmM2v9-lG7f-57" target="sor08i8SqQmM2v9-lG7f-54">
          <mxGeometry relative="1" as="geometry" />
        </mxCell>
        <mxCell id="sor08i8SqQmM2v9-lG7f-57" value="" style="shape=singleArrow;whiteSpace=wrap;html=1;" vertex="1" parent="1">
          <mxGeometry x="410" y="1754" width="100" height="60" as="geometry" />
        </mxCell>
        <mxCell id="sor08i8SqQmM2v9-lG7f-67" style="edgeStyle=orthogonalEdgeStyle;rounded=0;orthogonalLoop=1;jettySize=auto;html=1;entryX=0;entryY=0;entryDx=0;entryDy=0;" edge="1" parent="1" source="sor08i8SqQmM2v9-lG7f-58" target="sor08i8SqQmM2v9-lG7f-54">
          <mxGeometry relative="1" as="geometry" />
        </mxCell>
        <mxCell id="sor08i8SqQmM2v9-lG7f-58" value="" style="shape=singleArrow;whiteSpace=wrap;html=1;" vertex="1" parent="1">
          <mxGeometry x="410" y="1818" width="100" height="60" as="geometry" />
        </mxCell>
        <mxCell id="sor08i8SqQmM2v9-lG7f-63" style="edgeStyle=orthogonalEdgeStyle;rounded=0;orthogonalLoop=1;jettySize=auto;html=1;" edge="1" parent="1" source="sor08i8SqQmM2v9-lG7f-59" target="sor08i8SqQmM2v9-lG7f-54">
          <mxGeometry relative="1" as="geometry" />
        </mxCell>
        <mxCell id="sor08i8SqQmM2v9-lG7f-59" value="Queues" style="text;html=1;align=center;verticalAlign=middle;resizable=0;points=[];autosize=1;strokeColor=none;fillColor=none;" vertex="1" parent="1">
          <mxGeometry x="425" y="1630" width="70" height="30" as="geometry" />
        </mxCell>
        <mxCell id="sor08i8SqQmM2v9-lG7f-68" value="Total Arch" style="text;html=1;align=center;verticalAlign=middle;resizable=0;points=[];autosize=1;strokeColor=none;fillColor=none;" vertex="1" parent="1">
          <mxGeometry x="130" y="2085" width="80" height="30" as="geometry" />
        </mxCell>
        <mxCell id="sor08i8SqQmM2v9-lG7f-78" style="edgeStyle=orthogonalEdgeStyle;rounded=0;orthogonalLoop=1;jettySize=auto;html=1;entryX=0.18;entryY=0.293;entryDx=0;entryDy=0;entryPerimeter=0;" edge="1" parent="1" source="sor08i8SqQmM2v9-lG7f-69" target="sor08i8SqQmM2v9-lG7f-73">
          <mxGeometry relative="1" as="geometry" />
        </mxCell>
        <mxCell id="sor08i8SqQmM2v9-lG7f-69" value="" style="verticalLabelPosition=bottom;html=1;verticalAlign=top;align=center;strokeColor=none;fillColor=#00BEF2;shape=mxgraph.azure.computer;pointerEvents=1;" vertex="1" parent="1">
          <mxGeometry x="150" y="2190" width="50" height="45" as="geometry" />
        </mxCell>
        <mxCell id="sor08i8SqQmM2v9-lG7f-77" style="edgeStyle=orthogonalEdgeStyle;rounded=0;orthogonalLoop=1;jettySize=auto;html=1;entryX=0.13;entryY=0.77;entryDx=0;entryDy=0;entryPerimeter=0;" edge="1" parent="1" source="sor08i8SqQmM2v9-lG7f-70" target="sor08i8SqQmM2v9-lG7f-73">
          <mxGeometry relative="1" as="geometry" />
        </mxCell>
        <mxCell id="sor08i8SqQmM2v9-lG7f-70" value="" style="verticalLabelPosition=bottom;html=1;verticalAlign=top;align=center;strokeColor=none;fillColor=#00BEF2;shape=mxgraph.azure.laptop;pointerEvents=1;" vertex="1" parent="1">
          <mxGeometry x="155" y="2290" width="45" height="30" as="geometry" />
        </mxCell>
        <mxCell id="sor08i8SqQmM2v9-lG7f-79" style="edgeStyle=orthogonalEdgeStyle;rounded=0;orthogonalLoop=1;jettySize=auto;html=1;" edge="1" parent="1" source="sor08i8SqQmM2v9-lG7f-71" target="sor08i8SqQmM2v9-lG7f-73">
          <mxGeometry relative="1" as="geometry" />
        </mxCell>
        <mxCell id="sor08i8SqQmM2v9-lG7f-71" value="" style="image;aspect=fixed;perimeter=ellipsePerimeter;html=1;align=center;shadow=0;dashed=0;spacingTop=3;image=img/lib/active_directory/cell_phone.svg;" vertex="1" parent="1">
          <mxGeometry x="164.5" y="2390" width="21" height="50" as="geometry" />
        </mxCell>
        <mxCell id="sor08i8SqQmM2v9-lG7f-75" style="edgeStyle=orthogonalEdgeStyle;rounded=0;orthogonalLoop=1;jettySize=auto;html=1;entryX=0.5;entryY=1;entryDx=0;entryDy=0;" edge="1" parent="1" source="sor08i8SqQmM2v9-lG7f-73" target="sor08i8SqQmM2v9-lG7f-74">
          <mxGeometry relative="1" as="geometry" />
        </mxCell>
        <mxCell id="sor08i8SqQmM2v9-lG7f-81" style="edgeStyle=orthogonalEdgeStyle;rounded=0;orthogonalLoop=1;jettySize=auto;html=1;entryX=0;entryY=0.5;entryDx=0;entryDy=0;" edge="1" parent="1" source="sor08i8SqQmM2v9-lG7f-73" target="sor08i8SqQmM2v9-lG7f-80">
          <mxGeometry relative="1" as="geometry" />
        </mxCell>
        <mxCell id="sor08i8SqQmM2v9-lG7f-73" value="" style="ellipse;shape=cloud;whiteSpace=wrap;html=1;" vertex="1" parent="1">
          <mxGeometry x="250" y="2235" width="100" height="70" as="geometry" />
        </mxCell>
        <mxCell id="sor08i8SqQmM2v9-lG7f-74" value="" style="image;html=1;image=img/lib/clip_art/computers/Server_Rack_128x128.png" vertex="1" parent="1">
          <mxGeometry x="260" y="2020" width="80" height="80" as="geometry" />
        </mxCell>
        <mxCell id="sor08i8SqQmM2v9-lG7f-86" style="edgeStyle=orthogonalEdgeStyle;rounded=0;orthogonalLoop=1;jettySize=auto;html=1;entryX=0.5;entryY=1;entryDx=0;entryDy=0;" edge="1" parent="1" source="sor08i8SqQmM2v9-lG7f-80" target="sor08i8SqQmM2v9-lG7f-85">
          <mxGeometry relative="1" as="geometry" />
        </mxCell>
        <mxCell id="sor08i8SqQmM2v9-lG7f-80" value="Load Balancer" style="rhombus;whiteSpace=wrap;html=1;" vertex="1" parent="1">
          <mxGeometry x="450" y="2230" width="80" height="80" as="geometry" />
        </mxCell>
        <mxCell id="sor08i8SqQmM2v9-lG7f-84" style="edgeStyle=orthogonalEdgeStyle;rounded=0;orthogonalLoop=1;jettySize=auto;html=1;entryX=0.5;entryY=1;entryDx=0;entryDy=0;" edge="1" parent="1" source="sor08i8SqQmM2v9-lG7f-82" target="sor08i8SqQmM2v9-lG7f-80">
          <mxGeometry relative="1" as="geometry" />
        </mxCell>
        <mxCell id="sor08i8SqQmM2v9-lG7f-93" style="edgeStyle=orthogonalEdgeStyle;rounded=0;orthogonalLoop=1;jettySize=auto;html=1;" edge="1" parent="1" source="sor08i8SqQmM2v9-lG7f-82" target="sor08i8SqQmM2v9-lG7f-53">
          <mxGeometry relative="1" as="geometry" />
        </mxCell>
        <mxCell id="sor08i8SqQmM2v9-lG7f-82" value="" style="image;html=1;image=img/lib/clip_art/computers/Server_Rack_128x128.png" vertex="1" parent="1">
          <mxGeometry x="470" y="2390" width="80" height="80" as="geometry" />
        </mxCell>
        <mxCell id="sor08i8SqQmM2v9-lG7f-83" value="Block Server" style="text;html=1;align=center;verticalAlign=middle;resizable=0;points=[];autosize=1;strokeColor=none;fillColor=none;" vertex="1" parent="1">
          <mxGeometry x="455" y="2495" width="90" height="30" as="geometry" />
        </mxCell>
        <mxCell id="sor08i8SqQmM2v9-lG7f-92" style="edgeStyle=orthogonalEdgeStyle;rounded=0;orthogonalLoop=1;jettySize=auto;html=1;entryX=0;entryY=0.5;entryDx=0;entryDy=0;entryPerimeter=0;" edge="1" parent="1" source="sor08i8SqQmM2v9-lG7f-85" target="sor08i8SqQmM2v9-lG7f-90">
          <mxGeometry relative="1" as="geometry" />
        </mxCell>
        <mxCell id="sor08i8SqQmM2v9-lG7f-85" value="" style="image;html=1;image=img/lib/clip_art/computers/Server_Rack_128x128.png" vertex="1" parent="1">
          <mxGeometry x="450" y="2020" width="80" height="80" as="geometry" />
        </mxCell>
        <mxCell id="sor08i8SqQmM2v9-lG7f-87" value="Metadata Server" style="text;html=1;align=center;verticalAlign=middle;resizable=0;points=[];autosize=1;strokeColor=none;fillColor=none;" vertex="1" parent="1">
          <mxGeometry x="445" y="1985" width="110" height="30" as="geometry" />
        </mxCell>
        <mxCell id="sor08i8SqQmM2v9-lG7f-88" value="" style="shape=link;html=1;rounded=0;entryX=0;entryY=0.5;entryDx=0;entryDy=0;" edge="1" parent="1" target="sor08i8SqQmM2v9-lG7f-85">
          <mxGeometry width="100" relative="1" as="geometry">
            <mxPoint x="325" y="2059.5" as="sourcePoint" />
            <mxPoint x="425" y="2059.5" as="targetPoint" />
          </mxGeometry>
        </mxCell>
        <mxCell id="sor08i8SqQmM2v9-lG7f-89" value="Synchronization Queue" style="text;html=1;align=center;verticalAlign=middle;resizable=0;points=[];autosize=1;strokeColor=none;fillColor=none;" vertex="1" parent="1">
          <mxGeometry x="316" y="2070" width="150" height="30" as="geometry" />
        </mxCell>
        <mxCell id="sor08i8SqQmM2v9-lG7f-90" value="" style="strokeWidth=2;html=1;shape=mxgraph.flowchart.database;whiteSpace=wrap;" vertex="1" parent="1">
          <mxGeometry x="680" y="2040" width="60" height="60" as="geometry" />
        </mxCell>
        <mxCell id="sor08i8SqQmM2v9-lG7f-91" value="Queues" style="text;html=1;align=center;verticalAlign=middle;resizable=0;points=[];autosize=1;strokeColor=none;fillColor=none;" vertex="1" parent="1">
          <mxGeometry x="435" y="1640" width="70" height="30" as="geometry" />
        </mxCell>
        <mxCell id="sor08i8SqQmM2v9-lG7f-94" value="Block storage" style="text;html=1;align=center;verticalAlign=middle;resizable=0;points=[];autosize=1;strokeColor=none;fillColor=none;" vertex="1" parent="1">
          <mxGeometry x="660" y="2435" width="100" height="30" as="geometry" />
        </mxCell>
        <mxCell id="sor08i8SqQmM2v9-lG7f-101" value="" style="edgeStyle=orthogonalEdgeStyle;rounded=0;orthogonalLoop=1;jettySize=auto;html=1;" edge="1" parent="1" source="sor08i8SqQmM2v9-lG7f-95" target="sor08i8SqQmM2v9-lG7f-97">
          <mxGeometry relative="1" as="geometry" />
        </mxCell>
        <mxCell id="sor08i8SqQmM2v9-lG7f-95" value="Metaa DB" style="text;html=1;align=center;verticalAlign=middle;resizable=0;points=[];autosize=1;strokeColor=none;fillColor=none;" vertex="1" parent="1">
          <mxGeometry x="650" y="2095" width="80" height="30" as="geometry" />
        </mxCell>
        <mxCell id="sor08i8SqQmM2v9-lG7f-102" style="edgeStyle=orthogonalEdgeStyle;rounded=0;orthogonalLoop=1;jettySize=auto;html=1;" edge="1" parent="1" source="sor08i8SqQmM2v9-lG7f-97" target="sor08i8SqQmM2v9-lG7f-85">
          <mxGeometry relative="1" as="geometry">
            <Array as="points">
              <mxPoint x="510" y="2190" />
            </Array>
          </mxGeometry>
        </mxCell>
        <mxCell id="sor08i8SqQmM2v9-lG7f-97" value="Meta Cache" style="rounded=0;whiteSpace=wrap;html=1;" vertex="1" parent="1">
          <mxGeometry x="650" y="2160" width="120" height="60" as="geometry" />
        </mxCell>
        <mxCell id="sor08i8SqQmM2v9-lG7f-103" style="edgeStyle=orthogonalEdgeStyle;rounded=0;orthogonalLoop=1;jettySize=auto;html=1;entryX=0.863;entryY=-0.025;entryDx=0;entryDy=0;entryPerimeter=0;" edge="1" parent="1" source="sor08i8SqQmM2v9-lG7f-98" target="sor08i8SqQmM2v9-lG7f-82">
          <mxGeometry relative="1" as="geometry">
            <Array as="points">
              <mxPoint x="610" y="2280" />
              <mxPoint x="610" y="2388" />
            </Array>
          </mxGeometry>
        </mxCell>
        <mxCell id="sor08i8SqQmM2v9-lG7f-98" value="Block Cache" style="rounded=0;whiteSpace=wrap;html=1;" vertex="1" parent="1">
          <mxGeometry x="650" y="2250" width="120" height="60" as="geometry" />
        </mxCell>
      </root>
    </mxGraphModel>
  </diagram>
</mxfile>
